@startuml
skinparam classAttributeIconSize 0
!include media/uml-class-arkivskaper.iuml
!include media/uml-class-arkiv.iuml
!include media/uml-class-arkivdel.iuml
!include media/uml-class-klassifikasjonssystem.iuml
!include media/uml-class-klasse.iuml
!include media/uml-class-kryssreferanse.iuml
!include media/uml-class-mappe.iuml
!include media/uml-class-merknad.iuml
!include media/uml-class-saksmappe.iuml
!include media/uml-class-sakspart.iuml
!include media/uml-class-journalpost.iuml
!include media/uml-class-korrespondansepart.iuml
class MøteOgUtvalgsbehandling.Møtemappe {
  +møtenummer : string [0..1]
  +utvalg : string
  +møtedato : datetime
  +møtested : string [0..1]
  +referanseForrigeMøte : SystemID [0..1]
  +referanseNesteMøte : SystemID [0..1]
}
!include media/uml-class-registrering.iuml
!include media/uml-class-dokumentbeskrivelse.iuml
!include media/uml-class-basisregistrering.iuml
!include media/uml-class-dokumentobjekt.iuml
class MøteOgUtvalgsbehandling.Møteregistrering {
  +møteregistreringstype : Møteregistreringstype
  +møtesakstype : Møtesakstype
  +møteregistreringsstatus : Møteregistreringsstatus [0..1]
  +administrativEnhet : string
  +referanseAdministrativEnhet : SystemID [0..1]
  +saksbehandler : string
  +referanseSaksbehandler : SystemID [0..1]
  +referanseTilMøteregistrering : SystemID [0..1]
  +referanseFraMøteregistrering : SystemID [0..1]
}
!include media/uml-class-konvertering.iuml
!include media/uml-datatype-elektronisksignatur.iuml
class "Noark5 - Sektorspesifikke data.Fil" {
}
class "Noark5 - Sektorspesifikke data.FilInnhold" {
  +base64 : base64Binary
}
class "Noark5 - Sektorspesifikke data.FilReferanse" {
  +uri : anyURI
  +kvitteringsUri : anyURI [0..1]
}

Arkivstruktur.Arkivskaper "+arkivskaper 1..*" <-o "+arkiv 0..*" Arkivstruktur.Arkiv
Arkivstruktur.Arkiv o--> "+underarkiv 0..*" Arkivstruktur.Arkiv
Arkivstruktur.Arkiv "+arkiv 1" o--> "+arkivdel 0..*" Arkivstruktur.Arkivdel
Arkivstruktur.Klassifikasjonssystem "+klassifikasjonssystem 0..*" <-o "+arkivdel 1..*" Arkivstruktur.Arkivdel
Arkivstruktur.Klassifikasjonssystem "+sekundærklassifikasjonssystem 0..*" <-o Arkivstruktur.Arkivdel
Arkivstruktur.Klassifikasjonssystem "+klassifikasjonssystem 0..1" o--> "+klasse 0..*" Arkivstruktur.Klasse
Arkivstruktur.Klasse o-> "+underklasse 0..1" Arkivstruktur.Klasse
Arkivstruktur.Klasse "+klasse 0..1" <-> "+kryssreferanse 0..*" Arkivstruktur.Kryssreferanse
Arkivstruktur.Mappe "+mappe 0..1" <-> "+kryssreferanse 0..*" Arkivstruktur.Kryssreferanse
Arkivstruktur.Kryssreferanse "+kryssreferanse 0..*" <--> "+registrering 0..1" Arkivstruktur.Basisregistrering
Arkivstruktur.Arkivdel "+arkivdel 0..1" o--> "+mappe 0..*" Arkivstruktur.Mappe
Arkivstruktur.Klasse "+sekundærklassifikasjon 0..*" <--o Sakarkiv.Saksmappe
Arkivstruktur.Klasse "+klasse 0..*" o--> "+mappe 0..*" Arkivstruktur.Mappe
Arkivstruktur.Mappe <|-- Sakarkiv.Saksmappe
Arkivstruktur.Mappe <|- MøteOgUtvalgsbehandling.Møtemappe
Sakarkiv.Saksmappe *--> "+sakspart 0..*" Sakarkiv.Sakspart
Arkivstruktur.Mappe *-> "+merknad 0..*" Arkivstruktur.Merknad
Arkivstruktur.Mappe "+mappe 0..1" o--> "+registrering 0..*" Arkivstruktur.Registrering
Arkivstruktur.Merknad "+merknad 0..*" <--* Arkivstruktur.Basisregistrering
Arkivstruktur.Registrering <|- Arkivstruktur.Basisregistrering
Arkivstruktur.Registrering "+registrering 1..*" o--> "+dokumentbeskrivelse 0..*" Arkivstruktur.Dokumentbeskrivelse
Arkivstruktur.Merknad "+merknad 0..*" <--* Arkivstruktur.Dokumentbeskrivelse
Arkivstruktur.Klasse "+klasse 0..1" o--> "+registrering 0..*" Arkivstruktur.Registrering
Arkivstruktur.Dokumentbeskrivelse "+dokumentbeskrivelse 1" o--> "+dokumentobjekt 0..*" Arkivstruktur.Dokumentobjekt
Arkivstruktur.Basisregistrering <|-- Sakarkiv.Journalpost
Arkivstruktur.Basisregistrering <|-- MøteOgUtvalgsbehandling.Møteregistrering
Sakarkiv.Journalpost *--> "+korrespondansepart 0..*" Sakarkiv.Korrespondansepart
Arkivstruktur.Dokumentobjekt *--> "+konvertering 0..*" Arkivstruktur.Konvertering

"Noark5 - Sektorspesifikke data.Fil" <|-- "Noark5 - Sektorspesifikke data.FilInnhold"
"Noark5 - Sektorspesifikke data.Fil" <|-- "Noark5 - Sektorspesifikke data.FilReferanse"
@enduml
