@startuml
skinparam nodesep 100
hide circle
class Arkivstruktur.Sletting <<dataType>> {
  +slettingstype : Slettingstype
  +slettetDato : datetime [0..1] [1..1]
  +slettetAv : string [0..1] [1..1]
  +referanseSlettetAv : SystemID [0..1] [1..1]
}
class Arkivstruktur.Arkivdel <Arkivenhet> {
}
Arkivstruktur.Arkivdel *-- Arkivstruktur.Sletting
class Arkivstruktur.Dokumentbeskrivelse <Arkivenhet> {
}
Arkivstruktur.Dokumentbeskrivelse *-- Arkivstruktur.Sletting
@enduml
