@startuml
skinparam nodesep 100
hide circle
class Arkivstruktur.Merknad {
  +systemID : SystemID [0..1] [1..1]
  +merknadstekst : string
  +merknadstype : Merknadstype [0..1]
  +merknadsdato : datetime [0..1] [1..1]
  +merknadRegistrertAv : string [0..1] [1..1]
  +referanseMerknadRegistrertAv : SystemID [0..1] [1..1]
}
class Arkivstruktur.Dokumentbeskrivelse <Arkivenhet> {
}
Arkivstruktur.Dokumentbeskrivelse *-- "merknad 0..*" Arkivstruktur.Merknad
class Arkivstruktur.Mappe <Arkivenhet> {
}
Arkivstruktur.Mappe *-- "merknad 0..*" Arkivstruktur.Merknad
class Arkivstruktur.Registrering <Arkivenhet> {
}
Arkivstruktur.Registrering *-- "merknad 0..*" Arkivstruktur.Merknad
@enduml
