@startuml
skinparam classAttributeIconSize 0
skinparam nodesep 180

'FIXME dropped caption "class Klassediagram_forklaring"

!include kapitler/media/uml-class-avskrivning.iuml
!include kapitler/media/uml-class-registrering.iuml
!include kapitler/media/uml-class-journalpost.iuml
!include kapitler/media/uml-class-mappe.iuml
!include kapitler/media/uml-class-registrering.iuml
!include kapitler/media/uml-codelist-graderingskode.iuml
!include kapitler/media/uml-datatype-gradering.iuml

Arkivstruktur.Registrering <|-- Sakarkiv.Journalpost

Arkivstruktur.Mappe "overmappe 0..1" o--> "undermappe 0..*" Arkivstruktur.Mappe
Arkivstruktur.Mappe "mappe 0..1" o--> "registrering 0..*" Arkivstruktur.Registrering
Sakarkiv.Journalpost -* "avskrivning 0..*" Sakarkiv.Avskrivning
package Arkivstruktur {
note left of Arkivstruktur.Registrering : Dette er eksempel på en\nnote, som kan være\nknytta til en klasse (som\ndenne) eller kan være\n"løs"
}

class Arkivstruktur.SystemID <<simple>> {
  -- notes --
  Definisjon: Entydig
  identifikasjon av
  enheten
}
class BasicTypes.string <<simple>>
class Arkivstruktur.SystemID <<simple>>
BasicTypes.string <|-- Arkivstruktur.SystemID
'layout adjustments
Arkivstruktur.Gradering <-[hidden] Arkivstruktur.Registrering
Kodelister.Graderingskode <-[hidden] Arkivstruktur.Gradering
@enduml
