@startuml
skinparam nodesep 100
hide circle
class Arkivstruktur.Skjerming <<dataType>> {
  +tilgangsrestriksjon : Tilgangsrestriksjon
  +skjermingshjemmel : string
  +skjermingMetadata : SkjermingMetadata [1..*]
  +skjermingDokument : SkjermingDokument [0..1] [1..1]
  +skjermingsvarighet : integer [0..1] [1..1]
  +skjermingOpphoererDato : datetime [0..1] [1..1]
}
class Arkivstruktur.Arkivdel <Arkivenhet> {
}
Arkivstruktur.Arkivdel *-- Arkivstruktur.Skjerming
class Arkivstruktur.Dokumentbeskrivelse <Arkivenhet> {
}
Arkivstruktur.Dokumentbeskrivelse *-- Arkivstruktur.Skjerming
class Arkivstruktur.Klasse <Arkivenhet> {
}
Arkivstruktur.Klasse *-- Arkivstruktur.Skjerming
class Arkivstruktur.Mappe <Arkivenhet> {
}
Arkivstruktur.Mappe *-- Arkivstruktur.Skjerming
class Arkivstruktur.Registrering <Arkivenhet> {
}
Arkivstruktur.Registrering *-- Arkivstruktur.Skjerming
@enduml
