@startuml
skinparam nodesep 100
hide circle
class Arkivstruktur.Klasse <Arkivenhet> {
  +klasseID : string
  +tittel : string
  +beskrivelse : string [0..1]
  +noekkelord : string [0..*]
  +avsluttetDato : datetime [0..1]
  +avsluttetAv : string [0..1]
  +referanseAvsluttetAv : SystemID [0..1]
  +skjerming : Skjerming [0..1]
  +kassasjon : Kassasjon [0..1]
  +gradering : Gradering [0..1]
}
class Arkivstruktur.Arkivenhet {
}
Arkivstruktur.Arkivenhet <|-- Arkivstruktur.Klasse
class Arkivstruktur.Kryssreferanse <Arkivenhet> {
}
Arkivstruktur.Klasse "klasse 0..1" *--> "kryssreferanse 0..*" Arkivstruktur.Kryssreferanse
class Arkivstruktur.Mappe <Arkivenhet> {
}
Arkivstruktur.Klasse "klasse 0..1" o--> "mappe 0..*" Arkivstruktur.Mappe
class Arkivstruktur.Registrering <Arkivenhet> {
}
Arkivstruktur.Klasse "klasse 0..1" o--> "registrering 0..*" Arkivstruktur.Registrering
Arkivstruktur.Klasse "overklasse 0..1" o-- "underklasse 0..*" Arkivstruktur.Klasse
class Arkivstruktur.Gradering <<dataType>> {
}
Arkivstruktur.Klasse *-- Arkivstruktur.Gradering
class Arkivstruktur.Kassasjon <<dataType>> {
}
Arkivstruktur.Klasse *-- Arkivstruktur.Kassasjon
class Arkivstruktur.Skjerming <<dataType>> {
}
Arkivstruktur.Klasse *-- Arkivstruktur.Skjerming
class Arkivstruktur.Klassifikasjonssystem <Arkivenhet> {
}
Arkivstruktur.Klassifikasjonssystem "klassifikasjonssystem 0..1" o--> "klasse 0..*" Arkivstruktur.Klasse
class Sakarkiv.Saksmappe <Mappe> {
}
Sakarkiv.Saksmappe *-- "sekundaerklassifikasjon 0..*" Arkivstruktur.Klasse
@enduml
