@startuml
skinparam nodesep 100
hide circle
class Arkivstruktur.Mappe <Arkivenhet> {
  +mappeID : string [0..1] [1..1]
  +tittel : string
  +offentligTittel : string [0..1]
  +beskrivelse : string [0..1]
  +noekkelord : string [0..*]
  +dokumentmedium : Dokumentmedium [0..1] [1..1]
  +oppbevaringssted : string [0..*]
  +avsluttetDato : datetime [0..1]
  +avsluttetAv : string [0..1]
  +referanseAvsluttetAv : SystemID [0..1]
  +kassasjon : Kassasjon [0..1]
  +skjerming : Skjerming [0..1]
  +gradering : Gradering [0..1]
  +referanseForelderMappe : SystemID [0..1]
  +virksomhetsspesifikkeMetadata : VirksomhetsspesifikkeMetadata [0..1]
}
class Arkivstruktur.Arkivdel <Arkivenhet> {
}
Arkivstruktur.Arkivdel "arkivdel 0..1" o--> "mappe 0..*" Arkivstruktur.Mappe
class Arkivstruktur.Arkivenhet {
}
Arkivstruktur.Arkivenhet <|-- Arkivstruktur.Mappe
class Arkivstruktur.Klasse <Arkivenhet> {
}
Arkivstruktur.Klasse "klasse 0..1" o--> "mappe 0..*" Arkivstruktur.Mappe
class Arkivstruktur.Kryssreferanse <Arkivenhet> {
}
Arkivstruktur.Mappe "mappe 0..1" *--> "kryssreferanse 0..*" Arkivstruktur.Kryssreferanse
class Arkivstruktur.Registrering <Arkivenhet> {
}
Arkivstruktur.Mappe "mappe 0..1" o--> "registrering 0..*" Arkivstruktur.Registrering
Arkivstruktur.Mappe "overmappe 0..1" o-- "undermappe 0..*" Arkivstruktur.Mappe
class Arkivstruktur.Merknad {
}
Arkivstruktur.Mappe *-- "merknad 0..*" Arkivstruktur.Merknad
class Arkivstruktur.Part {
}
Arkivstruktur.Mappe *-- "part 0..*" Arkivstruktur.Part
class Arkivstruktur.Gradering <<dataType>> {
}
Arkivstruktur.Mappe *-- Arkivstruktur.Gradering
class Arkivstruktur.Kassasjon <<dataType>> {
}
Arkivstruktur.Mappe *-- Arkivstruktur.Kassasjon
class Arkivstruktur.Skjerming <<dataType>> {
}
Arkivstruktur.Mappe *-- Arkivstruktur.Skjerming
class VirksomhetsspesifikkeMetadata.VirksomhetsspesifikkeMetadata <<VirksomhetsspesifikkeMetadata>> {
}
Arkivstruktur.Mappe *-- VirksomhetsspesifikkeMetadata.VirksomhetsspesifikkeMetadata
class MoeteOgUtvalgsbehandling.Moetemappe <Mappe> {
}
Arkivstruktur.Mappe <|-- MoeteOgUtvalgsbehandling.Moetemappe
class Sakarkiv.Saksmappe <Mappe> {
}
Arkivstruktur.Mappe <|-- Sakarkiv.Saksmappe
class Arkivstruktur.NasjonaleIdentifikatorer.Nasjonalidentifikator {
}
Arkivstruktur.Mappe o-- "nasjonalidentifikator 0..*" Arkivstruktur.NasjonaleIdentifikatorer.Nasjonalidentifikator
@enduml
