@startuml
skinparam nodesep 100
hide circle
class Arkivstruktur.PartEnhet <Part> {
  +enhetsidentifikator : Enhetsidentifikator [0..1]
  +navn : string
  +forretningsadresse : EnkelAdresse [0..1]
  +postadresse : EnkelAdresse [0..1]
  +kontaktinformasjon : Kontaktinformasjon [0..1]
  +kontaktperson : string [0..1]
}
class Arkivstruktur.Part {
}
Arkivstruktur.Part <|-- Arkivstruktur.PartEnhet
class Arkivstruktur.NasjonaleIdentifikatorer.Enhetsidentifikator <Nasjonalidentifikator> {
}
Arkivstruktur.PartEnhet *-- Arkivstruktur.NasjonaleIdentifikatorer.Enhetsidentifikator
class Arkivstruktur.EnkelAdresse <<dataType>> {
}
Arkivstruktur.PartEnhet *-- Arkivstruktur.EnkelAdresse
class Arkivstruktur.Kontaktinformasjon <<dataType>> {
}
Arkivstruktur.PartEnhet *-- Arkivstruktur.Kontaktinformasjon
@enduml
