@startuml
skinparam nodesep 100
hide circle
class Arkivstruktur.Kassasjon <<dataType>> {
  +kassasjonsvedtak : Kassasjonsvedtak
  +kassasjonshjemmel : string [0..1]
  +bevaringstid : integer
  +kassasjonsdato : datetime
}
class Arkivstruktur.Arkivdel <Arkivenhet> {
}
Arkivstruktur.Arkivdel *-- Arkivstruktur.Kassasjon
class Arkivstruktur.Dokumentbeskrivelse <Arkivenhet> {
}
Arkivstruktur.Dokumentbeskrivelse *-- Arkivstruktur.Kassasjon
class Arkivstruktur.Klasse <Arkivenhet> {
}
Arkivstruktur.Klasse *-- Arkivstruktur.Kassasjon
class Arkivstruktur.Mappe <Arkivenhet> {
}
Arkivstruktur.Mappe *-- Arkivstruktur.Kassasjon
class Arkivstruktur.Registrering <Arkivenhet> {
}
Arkivstruktur.Registrering *-- Arkivstruktur.Kassasjon
@enduml
