@startuml
skinparam nodesep 100
hide circle
class Sakarkiv.Saksmappe <Mappe> {
  +saksaar : integer [0..1] [1..1]
  +sakssekvensnummer : integer [0..1] [1..1]
  +saksdato : datetime [0..1] [1..1]
  +administrativEnhet : string [0..1] [1..1]
  +referanseAdministrativEnhet : SystemID [0..1] [1..1]
  +saksansvarlig : string [0..1] [1..1]
  +referanseSaksansvarlig : SystemID [0..1] [1..1]
  +journalenhet : string [0..1] [1..1]
  +saksstatus : Saksstatus [0..1] [1..1]
  +utlaantDato : datetime [0..1]
  +utlaantTil : string [0..1]
  +referanseUtlaantTil : SystemID [0..1]
}
class Arkivstruktur.Mappe <Arkivenhet> {
}
Arkivstruktur.Mappe <|-- Sakarkiv.Saksmappe
class Sakarkiv.Presedens {
}
Sakarkiv.Presedens "presedens 0..*" *--> "saksmappe 0..*" Sakarkiv.Saksmappe
class Arkivstruktur.Klasse <Arkivenhet> {
}
Sakarkiv.Saksmappe *-- "sekundaerklassifikasjon 0..*" Arkivstruktur.Klasse
@enduml
