@startuml
skinparam nodesep 100
hide circle
class Arkivstruktur.Kontaktinformasjon <<dataType>> {
  +epostadresse : string [0..1]
  +mobiltelefon : string [0..1]
  +telefon : string [0..1]
}
class Arkivstruktur.KorrespondansepartEnhet <Korrespondansepart> {
}
Arkivstruktur.KorrespondansepartEnhet *-- Arkivstruktur.Kontaktinformasjon
class Arkivstruktur.KorrespondansepartPerson <Korrespondansepart> {
}
Arkivstruktur.KorrespondansepartPerson *-- Arkivstruktur.Kontaktinformasjon
class Arkivstruktur.PartEnhet <Part> {
}
Arkivstruktur.PartEnhet *-- Arkivstruktur.Kontaktinformasjon
class Arkivstruktur.PartPerson <Part> {
}
Arkivstruktur.PartPerson *-- Arkivstruktur.Kontaktinformasjon
@enduml
